<svg id="visual" viewBox="0 0 960 540" width="960" height="540" xmlns="http://www.w3.org/2000/svg" xmlns:xlink="http://www.w3.org/1999/xlink" version="1.1"><rect x="0" y="0" width="960" height="540" fill="#202731"></rect><path d="M0 178L40 185C80 192 160 206 240 201.7C320 197.3 400 174.7 480 176.2C560 177.7 640 203.3 720 210.7C800 218 880 207 920 201.5L960 196L960 0L920 0C880 0 800 0 720 0C640 0 560 0 480 0C400 0 320 0 240 0C160 0 80 0 40 0L0 0Z" fill="#ff4e42"></path><path d="M0 131L40 125.2C80 119.3 160 107.7 240 109.3C320 111 400 126 480 139C560 152 640 163 720 167C800 171 880 168 920 166.5L960 165L960 0L920 0C880 0 800 0 720 0C640 0 560 0 480 0C400 0 320 0 240 0C160 0 80 0 40 0L0 0Z" fill="#f03a51"></path><path d="M0 61L40 69.3C80 77.7 160 94.3 240 96.7C320 99 400 87 480 91.5C560 96 640 117 720 114.3C800 111.7 880 85.3 920 72.2L960 59L960 0L920 0C880 0 800 0 720 0C640 0 560 0 480 0C400 0 320 0 240 0C160 0 80 0 40 0L0 0Z" fill="#dd2b5e"></path><path d="M0 39L40 43.3C80 47.7 160 56.3 240 62.8C320 69.3 400 73.7 480 66.8C560 60 640 42 720 37.8C800 33.7 880 43.3 920 48.2L960 53L960 0L920 0C880 0 800 0 720 0C640 0 560 0 480 0C400 0 320 0 240 0C160 0 80 0 40 0L0 0Z" fill="#c62368"></path></svg>